<svg id="Layer_1" data-name="Layer 1" xmlns="http://www.w3.org/2000/svg" viewBox="0 0 448 392"><defs><style>.cls-1{fill:#fff;}</style></defs><title>bars-solid</title><path class="cls-1" d="M16,132H432a15.99943,15.99943,0,0,0,16-16V76a15.99943,15.99943,0,0,0-16-16H16A15.99943,15.99943,0,0,0,0,76v40A15.99943,15.99943,0,0,0,16,132Zm0,160H432a15.99942,15.99942,0,0,0,16-16V236a15.99942,15.99942,0,0,0-16-16H16A15.99943,15.99943,0,0,0,0,236v40A15.99943,15.99943,0,0,0,16,292Zm0,160H432a15.99942,15.99942,0,0,0,16-16V396a15.99942,15.99942,0,0,0-16-16H16A15.99943,15.99943,0,0,0,0,396v40A15.99943,15.99943,0,0,0,16,452Z" transform="translate(0 -60)"/></svg>