<svg id="Layer_1" data-name="Layer 1" xmlns="http://www.w3.org/2000/svg" viewBox="0 0 30.00012 29.99902"><defs><style>.cls-1{fill:#007d55;}</style></defs><title>share_icon</title><path class="cls-1" d="M5.293,20.291a5.24694,5.24694,0,0,0,3.39841-1.26459l10.75,5.375c-.00782.1015-.03119.19629-.03119.30169a5.29491,5.29491,0,1,0,5.29593-5.29388h-.001a5.23857,5.23857,0,0,0-3.39841,1.26563l-10.74811-5.375c.00391-.10163.02741-.19733.02741-.29981,0-.10553-.0235-.20209-.02741-.30469L21.3067,9.31744a5.23785,5.23785,0,0,0,3.39841,1.26947A5.29346,5.29346,0,1,0,19.41022,5.291c0,.10553.0234.20221.03119.30371l-10.75,5.374A5.28391,5.28391,0,1,0,5.293,20.29108Z" transform="translate(0.00009 0)"/></svg>