<svg id="Layer_1" data-name="Layer 1" xmlns="http://www.w3.org/2000/svg" viewBox="0 0 30.003 24"><defs><style>.cls-1{fill:#fff;}</style></defs><title>twitter_icon</title><path class="cls-1" d="M320.86519,384.954a12.44084,12.44084,0,0,1-3.9101,1.4717,6.1871,6.1871,0,0,0-4.4922-1.9139,6.06416,6.06416,0,0,0-5.9961,7.4396,17.56939,17.56939,0,0,1-12.6865-6.3303,5.96092,5.96092,0,0,0-.834,3.0465,6.03452,6.03452,0,0,0,2.7393,5.042,6.21394,6.21394,0,0,1-2.7881-.7575v.076a6.09,6.09,0,0,0,4.9384,5.9418,6.275,6.275,0,0,1-2.7812.1038,6.15338,6.15338,0,0,0,5.75,4.2077,12.47863,12.47863,0,0,1-7.6455,2.5935,12.77886,12.77886,0,0,1-1.46879-.0845,17.63764,17.63764,0,0,0,9.43659,2.7214,17.24758,17.24758,0,0,0,17.5117-17.2382c0-.2624-.0039-.5249-.0156-.7843a12.38328,12.38328,0,0,0,3.07031-3.1369,12.4113,12.4113,0,0,1-3.53521.9537A6.09162,6.09162,0,0,0,320.86519,384.954Z" transform="translate(-291.6904 -384.5118)"/></svg>