<svg id="Layer_1" data-name="Layer 1" xmlns="http://www.w3.org/2000/svg" viewBox="0 0 29.99899 26"><defs><style>.cls-1{fill:#fff;}</style></defs><title>vimeo_icon</title><path class="cls-1" d="M367.2149,549.9647c-.836,0-1.4805-2.1747-2.4375-5.977-.9903-3.9323-.9844-11.0131-5.1016-10.2109-3.8828.7575-8.9844,6.8092-8.9844,6.8092l1.2168,1.5878s2.5137-1.967,3.3516-.9845c.8379.9845,4.0351,12.86,5.1016,15.0511.9335,1.9226,3.5019,4.4639,6.3203,2.6481,2.8183-1.8148,12.1836-9.757,13.8593-19.1357,1.6758-9.3768-11.2714-7.4135-12.6406.7566,3.4258-2.0447,5.2559.8313,3.502,4.0846C369.6524,547.8453,368.0528,549.9647,367.2149,549.9647Z" transform="translate(-350.6914 -533.51178)"/></svg>